<svg width="42" height="40" viewBox="0 0 42 40" fill="none" xmlns="http://www.w3.org/2000/svg">
<path d="M31.7116 9.99967C33.437 13.6163 33.0441 17.883 31.1478 21.3497C29.542 24.1663 27.2357 26.5497 25.2711 29.1663C24.417 30.333 23.5628 31.583 22.9307 32.933C22.7086 33.383 22.5549 33.8497 22.3841 34.3163C22.2132 34.783 22.0595 35.2497 21.9057 35.7163C21.752 36.1497 21.5641 36.6663 21.0003 36.6663C20.3341 36.6663 20.1461 35.933 20.0095 35.433C19.5995 34.2163 19.1895 33.0497 18.5574 31.933C17.8399 30.6163 16.9345 29.3997 16.012 28.2163L31.7116 9.99967ZM16.0803 14.033L10.4428 20.5663C11.4849 22.7163 13.0395 24.5497 14.5257 26.383C14.8845 26.7997 15.2432 27.233 15.5849 27.683L22.7086 19.4497L22.6403 19.4663C20.1461 20.2997 17.3786 19.0663 16.3878 16.6663C16.2511 16.383 16.1486 16.0497 16.0803 15.7163C15.9847 15.1647 15.9847 14.6013 16.0803 14.0497V14.033ZM11.7411 7.69967L11.7241 7.71634C8.95656 11.133 8.47823 15.883 10.1353 19.8997L16.9516 11.9997L16.8661 11.9163L11.7411 7.69967ZM24.7928 3.93301L19.292 10.283L19.3603 10.2663C21.6495 9.49967 24.212 10.4663 25.3736 12.4997C25.6299 12.9663 25.8349 13.4663 25.9032 13.9663C26.0057 14.5997 26.0399 15.0497 25.9203 15.6663V15.683L31.387 9.34967C29.9565 6.81656 27.6125 4.89211 24.8099 3.94967L24.7928 3.93301ZM17.3957 11.483L24.0753 3.73301L24.007 3.71634C23.0161 3.46634 22.0082 3.33301 21.0003 3.33301C17.6349 3.33301 14.4574 4.74967 12.2024 7.18301L12.1682 7.19967L17.3957 11.483Z" fill="white"/>
</svg>
