<svg width="105" height="105" viewBox="0 0 105 105" fill="none" xmlns="http://www.w3.org/2000/svg">
<path d="M30.7577 0.372858C25.1709 0.635341 21.3559 1.52778 18.0265 2.83582C14.5252 4.16202 11.3544 6.23396 8.73398 8.90792C6.07089 11.5354 4.01083 14.7104 2.69648 18.2129C1.40586 21.5552 0.526481 25.3787 0.281481 30.9609C0.0364806 36.543 -0.0203944 38.3454 0.00585557 52.6026C0.0321056 66.8598 0.0977306 68.6446 0.368981 74.2443C0.635856 79.8308 1.52398 83.6455 2.83211 86.9791C4.17961 90.4307 5.98211 93.353 8.90461 96.2666C11.5348 98.9306 14.7131 100.991 18.219 102.304C21.5571 103.594 25.3765 104.474 30.9634 104.719C36.5546 104.964 38.3527 105.02 52.6065 104.994C66.8602 104.968 68.654 104.902 74.2496 104.635C79.8496 104.373 83.6427 103.476 86.9809 102.172C90.4805 100.846 93.6498 98.7738 96.269 96.1003C98.9331 93.4703 100.993 90.2922 102.306 86.7866C103.597 83.4487 104.476 79.6295 104.717 74.0474C104.962 68.4478 105.023 66.6542 104.993 52.4013C104.966 38.1485 104.905 36.3593 104.638 30.7596C104.376 25.16 103.483 21.3627 102.171 18.0248C100.845 14.5258 98.7748 11.3567 96.1027 8.73731C93.4738 6.07386 90.297 4.0139 86.7927 2.70021C83.4502 1.41404 79.6352 0.530348 74.044 0.294113C68.4571 0.0447544 66.659 -0.0208663 52.4009 0.00538197C38.1427 0.0316303 36.3577 0.097251 30.7577 0.372858ZM31.3702 95.2735C26.2515 95.0548 23.4734 94.2017 21.6227 93.4886C19.3388 92.6542 17.2722 91.3159 15.5765 89.5733C13.828 87.8849 12.4822 85.8245 11.639 83.5449C10.9171 81.6944 10.0509 78.9165 9.81461 73.7981C9.5521 68.2684 9.49961 66.606 9.46461 52.5894C9.43836 38.5729 9.49086 36.9148 9.73148 31.3808C9.95023 26.2668 10.8077 23.4845 11.5165 21.634C12.4615 19.1798 13.6034 17.4342 15.4321 15.5881C17.1218 13.8392 19.1839 12.4935 21.4652 11.6509C23.3159 10.929 26.0896 10.0716 31.2084 9.82661C36.7427 9.56413 38.4009 9.51163 52.4184 9.47664C66.4315 9.45039 68.094 9.50289 73.6371 9.74787C78.7471 9.96661 81.5296 10.8153 83.3802 11.5328C85.8302 12.4777 87.5802 13.6107 89.4265 15.4481C91.2727 17.2855 92.4059 19.0223 93.364 21.4765C94.0859 23.3226 94.9477 26.0962 95.1884 31.219C95.4509 36.753 95.5121 38.4154 95.5384 52.4276C95.5602 66.4398 95.5121 68.1022 95.2715 73.6362C95.0483 78.7546 94.1996 81.5326 93.4865 83.3918C92.5415 85.8416 91.3996 87.5915 89.5665 89.4289C87.878 91.1773 85.8174 92.523 83.5377 93.3661C81.6915 94.088 78.909 94.9498 73.799 95.1948C68.2602 95.4573 66.6021 95.5098 52.5802 95.5404C38.5584 95.571 36.909 95.5098 31.3702 95.2735ZM74.1708 24.4425C74.1726 25.6887 74.5439 26.9063 75.2378 27.9414C75.9316 28.9765 76.917 29.7825 78.069 30.2576C79.2211 30.7327 80.4883 30.8554 81.7101 30.6103C82.932 30.3652 84.0537 29.7632 84.9333 28.8805C85.813 27.9978 86.4111 26.8741 86.652 25.6515C86.8929 24.4289 86.7658 23.1623 86.2867 22.0119C85.8076 20.8616 84.998 19.8791 83.9605 19.1889C82.9229 18.4986 81.7039 18.1316 80.4577 18.1342C78.7876 18.1377 77.1872 18.8041 76.0083 19.987C74.8294 21.1699 74.1685 22.7725 74.1708 24.4425ZM25.5471 52.5544C25.561 59.7033 28.4144 66.5538 33.4796 71.599C38.5448 76.6441 45.4068 79.4707 52.5562 79.4567C59.7055 79.4428 66.5565 76.5896 71.602 71.5247C76.6474 66.4599 79.4742 59.5983 79.4602 52.4495C79.3571 45.3595 76.4646 38.5957 71.4093 33.6234C66.3539 28.651 59.5429 25.8706 52.4518 25.8844C45.3607 25.8982 38.5606 28.7052 33.5247 33.6972C28.4887 38.6892 25.6226 45.4642 25.5471 52.5544ZM35.0015 52.5369C34.9946 49.076 36.0142 45.6907 37.9313 42.8092C39.8485 39.9277 42.5771 37.6794 45.7722 36.3486C48.9672 35.0177 52.4852 34.6642 55.8812 35.3326C59.2772 36.001 62.3987 37.6613 64.851 40.1037C67.3034 42.5461 68.9763 45.6607 69.6583 49.0538C70.3404 52.4469 70.0008 55.966 68.6827 59.1661C67.3646 62.3663 65.127 65.1037 62.253 67.0323C59.379 68.9608 55.9976 69.9939 52.5365 70.0008C50.2383 70.0054 47.9618 69.5573 45.8368 68.6822C43.7119 67.807 41.7801 66.5219 40.1518 64.9003C38.5236 63.2786 37.2307 61.3521 36.347 59.2308C35.4633 57.1095 35.0061 54.8349 35.0015 52.5369Z" fill="#17130B"/>
</svg>
