<svg width="24" height="24" viewBox="0 0 24 24" fill="none" xmlns="http://www.w3.org/2000/svg">
<path d="M11.5 3C9.92528 3 8.41505 3.62556 7.30155 4.73905C6.18806 5.85255 5.5625 7.36278 5.5625 8.9375C5.5625 14.875 11.5 22 11.5 22C11.5 22 17.4375 14.875 17.4375 8.9375C17.4375 7.36278 16.8119 5.85255 15.6984 4.73905C14.5849 3.62556 13.0747 3 11.5 3ZM11.5 12.5C10.5552 12.5 9.64903 12.1247 8.98093 11.4566C8.31283 10.7885 7.9375 9.88233 7.9375 8.9375C7.9375 7.99267 8.31283 7.08653 8.98093 6.41843C9.64903 5.75033 10.5552 5.375 11.5 5.375C12.4448 5.375 13.351 5.75033 14.0191 6.41843C14.6872 7.08653 15.0625 7.99267 15.0625 8.9375C15.0625 9.88233 14.6872 10.7885 14.0191 11.4566C13.351 12.1247 12.4448 12.5 11.5 12.5Z" fill="#17130B"/>
</svg>
