<svg width="119" height="119" viewBox="0 0 119 119" fill="none" xmlns="http://www.w3.org/2000/svg">
<path d="M32.8242 53.5004C39.9642 67.5325 51.4675 78.9862 65.4996 86.1758L76.4079 75.2675C77.7467 73.9288 79.73 73.4825 81.4654 74.0775C87.0188 75.9121 93.0183 76.9038 99.1667 76.9038C101.894 76.9038 104.125 79.135 104.125 81.8621V99.1667C104.125 101.894 101.894 104.125 99.1667 104.125C52.6079 104.125 14.875 66.3921 14.875 19.8333C14.875 17.1063 17.1063 14.875 19.8333 14.875H37.1875C39.9146 14.875 42.1458 17.1063 42.1458 19.8333C42.1458 26.0312 43.1375 31.9813 44.9721 37.5346C45.5175 39.27 45.1208 41.2038 43.7325 42.5921L32.8242 53.5004Z" fill="#17130B"/>
</svg>
