<svg width="25" height="25" viewBox="0 0 25 25" fill="none" xmlns="http://www.w3.org/2000/svg">
<path d="M12.4834 2.45639C15.8188 2.45639 16.2137 2.47075 17.5255 2.52818C18.7445 2.58083 19.4028 2.78184 19.8417 2.94936C20.422 3.16952 20.8414 3.43754 21.2753 3.8635C21.7142 4.29425 21.9824 4.70107 22.2067 5.27061C22.3774 5.70136 22.5822 6.35227 22.6358 7.544C22.6944 8.83625 22.709 9.22392 22.709 12.4928C22.709 15.7665 22.6944 16.1542 22.6358 17.4416C22.5822 18.6382 22.3774 19.2843 22.2067 19.715C21.9824 20.2846 21.7093 20.6962 21.2753 21.1221C20.8365 21.5529 20.422 21.8161 19.8417 22.0363C19.4028 22.2038 18.7397 22.4048 17.5255 22.4575C16.2089 22.5149 15.8139 22.5293 12.4834 22.5293C9.14796 22.5293 8.75298 22.5149 7.44125 22.4575C6.22217 22.4048 5.56387 22.2038 5.125 22.0363C4.54472 21.8161 4.12536 21.5481 3.69137 21.1221C3.2525 20.6914 2.9843 20.2846 2.75999 19.715C2.58932 19.2843 2.38452 18.6334 2.33088 17.4416C2.27236 16.1494 2.25773 15.7617 2.25773 12.4928C2.25773 9.21914 2.27236 8.83146 2.33088 7.544C2.38452 6.34748 2.58932 5.70136 2.75999 5.27061C2.9843 4.70107 3.25738 4.28946 3.69137 3.8635C4.13024 3.43275 4.54472 3.16952 5.125 2.94936C5.56387 2.78184 6.22705 2.58083 7.44125 2.52818C8.75298 2.47075 9.14796 2.45639 12.4834 2.45639ZM12.4834 0.25C9.09432 0.25 8.67008 0.264358 7.33885 0.321791C6.01249 0.379224 5.10062 0.589812 4.31066 0.891336C3.48656 1.20722 2.78925 1.62361 2.09681 2.30802C1.3995 2.98764 0.975262 3.67206 0.653426 4.47612C0.346218 5.25625 0.13166 6.14646 0.0731447 7.44828C0.0146289 8.75967 0 9.17606 0 12.5024C0 15.8287 0.0146289 16.2451 0.0731447 17.5517C0.13166 18.8535 0.346218 19.7485 0.653426 20.5239C0.975262 21.3327 1.3995 22.0171 2.09681 22.6968C2.78925 23.3764 3.48656 23.7976 4.30578 24.1087C5.10062 24.4102 6.00762 24.6208 7.33397 24.6782C8.66521 24.7356 9.08944 24.75 12.4785 24.75C15.8675 24.75 16.2918 24.7356 17.623 24.6782C18.9493 24.6208 19.8612 24.4102 20.6512 24.1087C21.4704 23.7976 22.1677 23.3764 22.8601 22.6968C23.5526 22.0171 23.9817 21.3327 24.2987 20.5287C24.6059 19.7485 24.8204 18.8583 24.8789 17.5565C24.9375 16.2499 24.9521 15.8335 24.9521 12.5072C24.9521 9.18085 24.9375 8.76446 24.8789 7.45785C24.8204 6.15604 24.6059 5.26104 24.2987 4.48569C23.9915 3.67206 23.5672 2.98764 22.8699 2.30802C22.1775 1.62839 21.4802 1.20722 20.6609 0.896122C19.8661 0.594599 18.9591 0.384011 17.6327 0.326577C16.2966 0.264358 15.8724 0.25 12.4834 0.25Z" fill="#17130B"/>
<path d="M12.4833 6.20874C8.94312 6.20874 6.07097 9.02775 6.07097 12.5024C6.07097 15.9772 8.94312 18.7962 12.4833 18.7962C16.0235 18.7962 18.8957 15.9772 18.8957 12.5024C18.8957 9.02775 16.0235 6.20874 12.4833 6.20874ZM12.4833 16.585C10.1866 16.585 8.32382 14.7567 8.32382 12.5024C8.32382 10.2482 10.1866 8.41991 12.4833 8.41991C14.7801 8.41991 16.6428 10.2482 16.6428 12.5024C16.6428 14.7567 14.7801 16.585 12.4833 16.585Z" fill="#17130B"/>
<path d="M20.6463 5.95981C20.6463 6.77345 19.9734 7.42914 19.1493 7.42914C18.3203 7.42914 17.6522 6.76866 17.6522 5.95981C17.6522 5.14617 18.3252 4.49048 19.1493 4.49048C19.9734 4.49048 20.6463 5.15096 20.6463 5.95981Z" fill="#17130B"/>
</svg>
