<svg width="48" height="46" viewBox="0 0 48 46" fill="none" xmlns="http://www.w3.org/2000/svg">
<g id="Group">
<path id="Vector" d="M24.01 4.06517C30.1675 4.06517 30.8967 4.09162 33.3183 4.19744C35.5688 4.29444 36.7841 4.6648 37.5943 4.97344C38.6656 5.37907 39.4398 5.87289 40.241 6.6577C41.0512 7.45134 41.5463 8.20088 41.9604 9.25024C42.2755 10.0439 42.6536 11.2431 42.7526 13.4389C42.8606 15.8198 42.8876 16.534 42.8876 22.5568C42.8876 28.5884 42.8606 29.3027 42.7526 31.6748C42.6536 33.8793 42.2755 35.0698 41.9604 35.8634C41.5463 36.9128 41.0422 37.6711 40.241 38.456C39.4308 39.2496 38.6656 39.7346 37.5943 40.1402C36.7841 40.4489 35.5598 40.8192 33.3183 40.9162C30.8877 41.022 30.1585 41.0485 24.01 41.0485C17.8525 41.0485 17.1233 41.022 14.7017 40.9162C12.4512 40.8192 11.2359 40.4489 10.4257 40.1402C9.35441 39.7346 8.58022 39.2408 7.77902 38.456C6.96882 37.6623 6.4737 36.9128 6.0596 35.8634C5.74452 35.0698 5.36643 33.8705 5.26741 31.6748C5.15938 29.2939 5.13238 28.5796 5.13238 22.5568C5.13238 16.5252 5.15938 15.8109 5.26741 13.4389C5.36643 11.2343 5.74452 10.0439 6.0596 9.25024C6.4737 8.20088 6.97783 7.44252 7.77902 6.6577C8.58922 5.86407 9.35441 5.37907 10.4257 4.97344C11.2359 4.6648 12.4602 4.29444 14.7017 4.19744C17.1233 4.09162 17.8525 4.06517 24.01 4.06517ZM24.01 0C17.7535 0 16.9703 0.0264544 14.5127 0.132272C12.0641 0.23809 10.3807 0.626089 8.9223 1.18163C7.40093 1.76363 6.11362 2.53081 4.8353 3.7918C3.54799 5.04398 2.7648 6.30498 2.17065 7.78643C1.60351 9.22378 1.20741 10.864 1.09939 13.2625C0.991362 15.6787 0.964355 16.4458 0.964355 22.5745C0.964355 28.7031 0.991362 29.4703 1.09939 31.8776C1.20741 34.2761 1.60351 35.9251 2.17065 37.3537C2.7648 38.8439 3.54799 40.1049 4.8353 41.3571C6.11362 42.6093 7.40093 43.3853 8.9133 43.9585C10.3807 44.514 12.0551 44.902 14.5037 45.0078C16.9613 45.1137 17.7445 45.1401 24.001 45.1401C30.2575 45.1401 31.0407 45.1137 33.4983 45.0078C35.9469 44.902 37.6303 44.514 39.0887 43.9585C40.6011 43.3853 41.8884 42.6093 43.1667 41.3571C44.445 40.1049 45.2372 38.844 45.8223 37.3625C46.3895 35.9251 46.7856 34.285 46.8936 31.8864C47.0016 29.4791 47.0286 28.7119 47.0286 22.5833C47.0286 16.4547 47.0016 15.6875 46.8936 13.2801C46.7856 10.8816 46.3895 9.2326 45.8223 7.80406C45.2552 6.30498 44.472 5.04398 43.1847 3.7918C41.9064 2.53963 40.6191 1.76363 39.1067 1.19045C37.6393 0.634907 35.9649 0.246908 33.5163 0.14109C31.0497 0.0264545 30.2665 0 24.01 0Z" fill="#FFFAF5"/>
<path id="Vector_2" d="M24.0098 10.9785C17.4742 10.9785 12.1719 16.1724 12.1719 22.5744C12.1719 28.9764 17.4742 34.1703 24.0098 34.1703C30.5454 34.1703 35.8477 28.9764 35.8477 22.5744C35.8477 16.1724 30.5454 10.9785 24.0098 10.9785ZM24.0098 30.0963C19.7697 30.0963 16.3309 26.7277 16.3309 22.5744C16.3309 18.421 19.7697 15.0525 24.0098 15.0525C28.2498 15.0525 31.6887 18.421 31.6887 22.5744C31.6887 26.7277 28.2498 30.0963 24.0098 30.0963Z" fill="#FFFAF5"/>
<path id="Vector_3" d="M39.0796 10.5197C39.0796 12.0188 37.8373 13.2268 36.3159 13.2268C34.7855 13.2268 33.5522 12.0099 33.5522 10.5197C33.5522 9.02059 34.7945 7.8125 36.3159 7.8125C37.8373 7.8125 39.0796 9.0294 39.0796 10.5197Z" fill="#FFFAF5"/>
</g>
</svg>
