<svg width="27" height="26" viewBox="0 0 27 26" fill="none" xmlns="http://www.w3.org/2000/svg">
<path id="Vector" d="M5.63856 11.2522C7.71856 15.34 11.0697 18.6767 15.1574 20.7711L18.3352 17.5933C18.7252 17.2033 19.303 17.0733 19.8086 17.2467C21.4263 17.7811 23.1741 18.07 24.9652 18.07C25.7597 18.07 26.4097 18.72 26.4097 19.5144V24.5556C26.4097 25.35 25.7597 26 24.9652 26C11.4019 26 0.409668 15.0078 0.409668 1.44444C0.409668 0.65 1.05967 0 1.85411 0H6.90967C7.70411 0 8.35411 0.65 8.35411 1.44444C8.35411 3.25 8.643 4.98333 9.17745 6.60111C9.33633 7.10667 9.22078 7.67 8.81633 8.07444L5.63856 11.2522Z" fill="#17130B"/>
</svg>
