<svg width="42" height="40" viewBox="0 0 42 40" fill="none" xmlns="http://www.w3.org/2000/svg">
<g id="mdi:google-maps">
<path id="Vector" d="M29.9324 13C31.4656 16.255 31.1165 20.095 29.4314 23.215C28.0044 25.75 25.955 27.895 24.2092 30.25C23.4501 31.3 22.6911 32.425 22.1294 33.64C21.932 34.045 21.7954 34.465 21.6436 34.885C21.4918 35.305 21.3552 35.725 21.2185 36.145C21.0819 36.535 20.9149 37 20.4139 37C19.8219 37 19.6549 36.34 19.5334 35.89C19.1691 34.795 18.8048 33.745 18.2431 32.74C17.6055 31.555 16.8009 30.46 15.9811 29.395L29.9324 13ZM16.0418 16.63L11.0321 22.51C11.9582 24.445 13.3396 26.095 14.6604 27.745C14.9792 28.12 15.298 28.51 15.6016 28.915L21.932 21.505L21.8713 21.52C19.6549 22.27 17.1956 21.16 16.3151 19C16.1936 18.745 16.1026 18.445 16.0418 18.145C15.9569 17.6485 15.9569 17.1415 16.0418 16.645V16.63ZM12.1859 10.93L12.1707 10.945C9.71139 14.02 9.28632 18.295 10.7589 21.91L16.8161 14.8L16.7402 14.725L12.1859 10.93ZM23.7841 7.54L18.8958 13.255L18.9566 13.24C20.9908 12.55 23.268 13.42 24.3003 15.25C24.528 15.67 24.7101 16.12 24.7709 16.57C24.8619 17.14 24.8923 17.545 24.786 18.1V18.115L29.6439 12.415C28.3727 10.1352 26.2898 8.4032 23.7993 7.555L23.7841 7.54ZM17.2108 14.335L23.1465 7.36L23.0858 7.345C22.2053 7.12 21.3096 7 20.4139 7C17.4233 7 14.5996 8.275 12.5958 10.465L12.5654 10.48L17.2108 14.335Z" fill="#17130B"/>
</g>
</svg>
